<svg xmlns="http://www.w3.org/2000/svg" xmlns:xlink="http://www.w3.org/1999/xlink" width="831" zoomAndPan="magnify" viewBox="0 0 623.25 566.999966" height="755" preserveAspectRatio="xMidYMid meet" version="1.0"><defs><clipPath id="id1"><path d="M 0 0.339844 L 622.5 0.339844 L 622.5 373.585938 L 0 373.585938 Z M 0 0.339844 " clip-rule="nonzero"/></clipPath><clipPath id="id2"><path d="M 0 0.339844 L 622.5 0.339844 L 622.5 306.722656 L 0 306.722656 Z M 0 0.339844 " clip-rule="nonzero"/></clipPath><clipPath id="id3"><path d="M 0 0.339844 L 622.5 0.339844 L 622.5 75.8125 L 0 75.8125 Z M 0 0.339844 " clip-rule="nonzero"/></clipPath></defs><g clip-path="url(#id1)"><path fill="#b5b2be" d="M 311.472656 -1135.847656 C -105.347656 -1135.847656 -443.246094 -797.949219 -443.246094 -381.132812 C -443.246094 35.6875 -105.347656 373.585938 311.472656 373.585938 C 728.289062 373.585938 1066.1875 35.6875 1066.1875 -381.132812 C 1066.1875 -797.949219 728.289062 -1135.847656 311.472656 -1135.847656 " fill-opacity="1" fill-rule="nonzero"/></g><g clip-path="url(#id2)"><path fill="#b5b2be" d="M -31.40625 0.339844 L 654.015625 0.339844 L 654.015625 306.722656 L -31.40625 306.722656 L -31.40625 0.339844 " fill-opacity="1" fill-rule="nonzero"/></g><g clip-path="url(#id3)"><path fill="#19191a" d="M 323.34375 -1433.621094 C -93.476562 -1433.621094 -431.375 -1095.722656 -431.375 -678.90625 C -431.375 -262.085938 -93.476562 75.8125 323.34375 75.8125 C 740.160156 75.8125 1078.058594 -262.085938 1078.058594 -678.90625 C 1078.058594 -1095.722656 740.160156 -1433.621094 323.34375 -1433.621094 " fill-opacity="1" fill-rule="nonzero"/></g></svg>