<svg xmlns="http://www.w3.org/2000/svg" xmlns:xlink="http://www.w3.org/1999/xlink" width="75" zoomAndPan="magnify" viewBox="0 0 56.879997 33.749999" height="45" preserveAspectRatio="xMidYMid meet" version="1.0"><defs><clipPath id="id1"><path d="M 0.148438 0 L 56.609375 0 L 56.609375 33.5 L 0.148438 33.5 Z M 0.148438 0 " clip-rule="nonzero"/></clipPath><clipPath id="id2"><path d="M 0.148438 0 L 56.609375 0 L 56.609375 27.546875 L 0.148438 27.546875 Z M 0.148438 0 " clip-rule="nonzero"/></clipPath><clipPath id="id3"><path d="M 0.148438 0 L 56.609375 0 L 56.609375 6.566406 L 0.148438 6.566406 Z M 0.148438 0 " clip-rule="nonzero"/></clipPath></defs><g clip-path="url(#id1)"><path fill="#b5b2be" d="M 28.222656 -102.605469 C -9.398438 -102.605469 -39.898438 -72.105469 -39.898438 -34.484375 C -39.898438 3.136719 -9.398438 33.636719 28.222656 33.636719 C 65.84375 33.636719 96.34375 3.136719 96.34375 -34.484375 C 96.34375 -72.105469 65.84375 -102.605469 28.222656 -102.605469 " fill-opacity="1" fill-rule="nonzero"/></g><g clip-path="url(#id2)"><path fill="#b5b2be" d="M -2.683594 0 L 59.101562 0 L 59.101562 27.546875 L -2.683594 27.546875 L -2.683594 0 " fill-opacity="1" fill-rule="nonzero"/></g><g clip-path="url(#id3)"><path fill="#19191a" d="M 29.296875 -129.671875 C -8.328125 -129.671875 -38.824219 -99.175781 -38.824219 -61.550781 C -38.824219 -23.929688 -8.328125 6.566406 29.296875 6.566406 C 66.917969 6.566406 97.414062 -23.929688 97.414062 -61.550781 C 97.414062 -99.175781 66.917969 -129.671875 29.296875 -129.671875 " fill-opacity="1" fill-rule="nonzero"/></g></svg>