<svg xmlns="http://www.w3.org/2000/svg" xmlns:xlink="http://www.w3.org/1999/xlink" width="1080" zoomAndPan="magnify" viewBox="0 0 810 809.999993" height="1080" preserveAspectRatio="xMidYMid meet" version="1.0"><defs><clipPath id="id1"><path d="M 629 218.34375 L 809.996094 218.34375 L 809.996094 504.09375 L 629 504.09375 Z M 629 218.34375 " clip-rule="nonzero"/></clipPath><clipPath id="id2"><path d="M 419 218.34375 L 600 218.34375 L 600 504.09375 L 419 504.09375 Z M 419 218.34375 " clip-rule="nonzero"/></clipPath><clipPath id="id3"><path d="M 210 218.34375 L 391 218.34375 L 391 504 L 210 504 Z M 210 218.34375 " clip-rule="nonzero"/></clipPath><clipPath id="id4"><path d="M 0 218.34375 L 182 218.34375 L 182 504 L 0 504 Z M 0 218.34375 " clip-rule="nonzero"/></clipPath></defs><g clip-path="url(#id1)"><path fill="#000000" d="M 629.890625 253.867188 C 629.632812 254.125 629.433594 254.421875 629.292969 254.757812 C 629.148438 255.097656 629.078125 255.449219 629.078125 255.8125 C 629.078125 256.179688 629.148438 256.527344 629.292969 256.867188 C 629.433594 257.203125 629.632812 257.5 629.890625 257.757812 L 733.300781 361.179688 L 629.890625 464.605469 C 629.34375 465.136719 629.074219 465.785156 629.085938 466.546875 C 629.082031 467.308594 629.351562 467.957031 629.890625 468.492188 L 664.585938 503.195312 C 664.84375 503.453125 665.140625 503.652344 665.476562 503.792969 C 665.816406 503.9375 666.164062 504.007812 666.53125 504.007812 C 666.894531 504.007812 667.246094 503.9375 667.585938 503.792969 C 667.921875 503.652344 668.21875 503.453125 668.476562 503.195312 L 808.539062 363.125 C 808.796875 362.867188 809 362.570312 809.140625 362.234375 C 809.28125 361.898438 809.351562 361.546875 809.351562 361.179688 C 809.351562 360.816406 809.28125 360.464844 809.140625 360.128906 C 809 359.789062 808.796875 359.492188 808.539062 359.238281 L 668.476562 219.148438 C 668.21875 218.890625 667.921875 218.6875 667.585938 218.546875 C 667.246094 218.40625 666.894531 218.335938 666.53125 218.335938 C 666.164062 218.335938 665.816406 218.40625 665.476562 218.546875 C 665.140625 218.6875 664.84375 218.890625 664.585938 219.148438 Z M 802.707031 361.179688 L 666.53125 497.363281 L 635.722656 466.550781 L 739.128906 363.125 C 739.660156 362.585938 739.929688 361.9375 739.9375 361.179688 C 739.9375 360.421875 739.667969 359.773438 739.128906 359.238281 L 635.722656 255.8125 L 666.53125 224.980469 Z M 802.707031 361.179688 " fill-opacity="1" fill-rule="nonzero"/></g><g clip-path="url(#id2)"><path fill="#000000" d="M 599.15625 363.125 C 599.414062 362.867188 599.609375 362.566406 599.746094 362.230469 C 599.886719 361.894531 599.953125 361.542969 599.953125 361.179688 C 599.953125 360.816406 599.886719 360.46875 599.746094 360.128906 C 599.609375 359.792969 599.414062 359.496094 599.15625 359.238281 L 459.09375 219.148438 C 458.835938 218.890625 458.539062 218.6875 458.203125 218.546875 C 457.867188 218.40625 457.515625 218.335938 457.148438 218.335938 C 456.785156 218.335938 456.433594 218.40625 456.097656 218.546875 C 455.757812 218.6875 455.460938 218.890625 455.207031 219.148438 L 420.492188 253.867188 C 420.238281 254.128906 420.039062 254.425781 419.902344 254.761719 C 419.765625 255.097656 419.695312 255.449219 419.695312 255.8125 C 419.695312 256.175781 419.765625 256.527344 419.902344 256.863281 C 420.039062 257.199219 420.238281 257.496094 420.492188 257.757812 L 523.898438 361.179688 L 420.492188 464.605469 C 419.953125 465.140625 419.683594 465.789062 419.6875 466.550781 C 419.691406 467.304688 419.960938 467.953125 420.492188 468.492188 L 455.207031 503.195312 C 455.460938 503.453125 455.757812 503.652344 456.097656 503.792969 C 456.433594 503.9375 456.785156 504.007812 457.148438 504.007812 C 457.515625 504.007812 457.867188 503.9375 458.203125 503.792969 C 458.539062 503.652344 458.835938 503.453125 459.09375 503.195312 Z M 426.324219 466.550781 L 529.730469 363.125 C 530.273438 362.589844 530.542969 361.941406 530.539062 361.179688 C 530.546875 360.417969 530.277344 359.769531 529.730469 359.238281 L 426.324219 255.8125 L 457.148438 224.980469 L 593.308594 361.179688 L 457.148438 497.363281 Z M 426.324219 466.550781 " fill-opacity="1" fill-rule="nonzero"/></g><g clip-path="url(#id3)"><path fill="#000000" d="M 389.757812 363.125 C 390.019531 362.867188 390.21875 362.570312 390.359375 362.234375 C 390.5 361.898438 390.570312 361.546875 390.570312 361.179688 C 390.570312 360.816406 390.5 360.464844 390.359375 360.128906 C 390.21875 359.789062 390.019531 359.492188 389.757812 359.238281 L 249.695312 219.148438 C 249.15625 218.613281 248.507812 218.34375 247.75 218.34375 C 246.992188 218.347656 246.34375 218.617188 245.804688 219.148438 L 211.113281 253.867188 C 210.851562 254.125 210.652344 254.421875 210.511719 254.757812 C 210.371094 255.097656 210.300781 255.449219 210.300781 255.8125 C 210.300781 256.179688 210.371094 256.527344 210.511719 256.867188 C 210.652344 257.203125 210.851562 257.5 211.113281 257.757812 L 314.519531 361.179688 L 211.109375 464.605469 C 210.5625 465.136719 210.292969 465.785156 210.304688 466.550781 C 210.300781 467.308594 210.570312 467.957031 211.109375 468.492188 L 245.804688 503.195312 C 246.34375 503.726562 246.992188 503.996094 247.75 504 C 248.507812 504 249.15625 503.730469 249.695312 503.195312 Z M 216.941406 466.550781 L 320.351562 363.125 C 320.878906 362.585938 321.148438 361.9375 321.15625 361.179688 C 321.15625 360.421875 320.890625 359.773438 320.351562 359.238281 L 216.941406 255.8125 L 247.75 224.980469 L 383.910156 361.179688 L 247.730469 497.363281 Z M 216.941406 466.550781 " fill-opacity="1" fill-rule="nonzero"/></g><g clip-path="url(#id4)"><path fill="#000000" d="M 180.359375 363.125 C 180.617188 362.867188 180.820312 362.570312 180.960938 362.234375 C 181.101562 361.898438 181.171875 361.546875 181.171875 361.179688 C 181.171875 360.816406 181.101562 360.464844 180.960938 360.128906 C 180.820312 359.789062 180.617188 359.492188 180.359375 359.238281 L 40.3125 219.148438 C 39.773438 218.617188 39.125 218.347656 38.371094 218.34375 C 37.609375 218.34375 36.960938 218.613281 36.425781 219.148438 L 1.710938 253.867188 C 1.457031 254.128906 1.261719 254.425781 1.121094 254.761719 C 0.984375 255.097656 0.914062 255.449219 0.914062 255.8125 C 0.914062 256.175781 0.984375 256.527344 1.121094 256.863281 C 1.261719 257.199219 1.457031 257.496094 1.710938 257.757812 L 105.175781 361.179688 L 1.765625 464.605469 C 1.226562 465.140625 0.957031 465.789062 0.960938 466.546875 C 0.96875 467.304688 1.234375 467.953125 1.765625 468.492188 L 36.480469 503.195312 C 37.015625 503.730469 37.664062 504 38.425781 504 C 39.183594 503.996094 39.828125 503.726562 40.367188 503.195312 Z M 7.542969 466.550781 L 110.949219 363.125 C 111.492188 362.589844 111.761719 361.941406 111.757812 361.179688 C 111.765625 360.417969 111.5 359.769531 110.949219 359.238281 L 7.542969 255.8125 L 38.371094 224.980469 L 174.527344 361.179688 L 38.371094 497.363281 Z M 7.542969 466.550781 " fill-opacity="1" fill-rule="nonzero"/></g></svg>