<svg xmlns="http://www.w3.org/2000/svg" xmlns:xlink="http://www.w3.org/1999/xlink" width="944" zoomAndPan="magnify" viewBox="0 0 708 566.999966" height="755" preserveAspectRatio="xMidYMid meet" version="1.0"><defs><clipPath id="id1"><path d="M 616 552 L 628.441406 552 L 628.441406 566.351562 L 616 566.351562 Z M 616 552 " clip-rule="nonzero"/></clipPath><clipPath id="id2"><path d="M 115.984375 414 L 626 414 L 626 564 L 115.984375 564 Z M 115.984375 414 " clip-rule="nonzero"/></clipPath><clipPath id="id3"><path d="M 115.984375 399 L 410 399 L 410 500 L 115.984375 500 Z M 115.984375 399 " clip-rule="nonzero"/></clipPath><clipPath id="id4"><path d="M 115.984375 384 L 520 384 L 520 531 L 115.984375 531 Z M 115.984375 384 " clip-rule="nonzero"/></clipPath><clipPath id="id5"><path d="M 115.984375 373 L 589 373 L 589 537 L 115.984375 537 Z M 115.984375 373 " clip-rule="nonzero"/></clipPath><clipPath id="id6"><path d="M 115.984375 464 L 256 464 L 256 566.351562 L 115.984375 566.351562 Z M 115.984375 464 " clip-rule="nonzero"/></clipPath><clipPath id="id7"><path d="M 115.984375 452 L 267 452 L 267 553 L 115.984375 553 Z M 115.984375 452 " clip-rule="nonzero"/></clipPath><clipPath id="id8"><path d="M 115.984375 439 L 430 439 L 430 566.351562 L 115.984375 566.351562 Z M 115.984375 439 " clip-rule="nonzero"/></clipPath><clipPath id="id9"><path d="M 115.984375 426 L 445 426 L 445 566.351562 L 115.984375 566.351562 Z M 115.984375 426 " clip-rule="nonzero"/></clipPath><clipPath id="id10"><path d="M 115.984375 479 L 234 479 L 234 566.351562 L 115.984375 566.351562 Z M 115.984375 479 " clip-rule="nonzero"/></clipPath><clipPath id="id11"><path d="M 115.984375 362 L 509 362 L 509 393 L 115.984375 393 Z M 115.984375 362 " clip-rule="nonzero"/></clipPath><clipPath id="id12"><path d="M 488 440 L 628.441406 440 L 628.441406 477 L 488 477 Z M 488 440 " clip-rule="nonzero"/></clipPath><clipPath id="id13"><path d="M 553 398 L 628.441406 398 L 628.441406 421 L 553 421 Z M 553 398 " clip-rule="nonzero"/></clipPath><clipPath id="id14"><path d="M 115.984375 103 L 520 103 L 520 250 L 115.984375 250 Z M 115.984375 103 " clip-rule="nonzero"/></clipPath><clipPath id="id15"><path d="M 115.984375 99 L 589 99 L 589 263 L 115.984375 263 Z M 115.984375 99 " clip-rule="nonzero"/></clipPath><clipPath id="id16"><path d="M 115.984375 85 L 267 85 L 267 185 L 115.984375 185 Z M 115.984375 85 " clip-rule="nonzero"/></clipPath><clipPath id="id17"><path d="M 492 53.894531 L 509 53.894531 L 509 60 L 492 60 Z M 492 53.894531 " clip-rule="nonzero"/></clipPath><clipPath id="id18"><path d="M 115.984375 53.894531 L 446 53.894531 L 446 197 L 115.984375 197 Z M 115.984375 53.894531 " clip-rule="nonzero"/></clipPath><clipPath id="id19"><path d="M 115.984375 53.894531 L 566 53.894531 L 566 210 L 115.984375 210 Z M 115.984375 53.894531 " clip-rule="nonzero"/></clipPath><clipPath id="id20"><path d="M 115.984375 53.894531 L 237 53.894531 L 237 163 L 115.984375 163 Z M 115.984375 53.894531 " clip-rule="nonzero"/></clipPath><clipPath id="id21"><path d="M 384 53.894531 L 398 53.894531 L 398 66 L 384 66 Z M 384 53.894531 " clip-rule="nonzero"/></clipPath><clipPath id="id22"><path d="M 115.984375 110 L 147 110 L 147 144 L 115.984375 144 Z M 115.984375 110 " clip-rule="nonzero"/></clipPath><clipPath id="id23"><path d="M 115.984375 95 L 218 95 L 218 175 L 115.984375 175 Z M 115.984375 95 " clip-rule="nonzero"/></clipPath><clipPath id="id24"><path d="M 115.984375 152 L 628.441406 152 L 628.441406 302 L 115.984375 302 Z M 115.984375 152 " clip-rule="nonzero"/></clipPath><clipPath id="id25"><path d="M 115.984375 215 L 438 215 L 438 316 L 115.984375 316 Z M 115.984375 215 " clip-rule="nonzero"/></clipPath><clipPath id="id26"><path d="M 115.984375 179 L 500 179 L 500 331 L 115.984375 331 Z M 115.984375 179 " clip-rule="nonzero"/></clipPath><clipPath id="id27"><path d="M 115.984375 196 L 591 196 L 591 343 L 115.984375 343 Z M 115.984375 196 " clip-rule="nonzero"/></clipPath><clipPath id="id28"><path d="M 115.984375 130 L 531 130 L 531 276 L 115.984375 276 Z M 115.984375 130 " clip-rule="nonzero"/></clipPath><clipPath id="id29"><path d="M 115.984375 126 L 599 126 L 599 290 L 115.984375 290 Z M 115.984375 126 " clip-rule="nonzero"/></clipPath><clipPath id="id30"><path d="M 115.984375 333 L 537 333 L 537 353 L 115.984375 353 Z M 115.984375 333 " clip-rule="nonzero"/></clipPath><clipPath id="id31"><path d="M 382 274 L 628.441406 274 L 628.441406 327 L 382 327 Z M 382 274 " clip-rule="nonzero"/></clipPath><clipPath id="id32"><path d="M 115.984375 136 L 400 136 L 400 237 L 115.984375 237 Z M 115.984375 136 " clip-rule="nonzero"/></clipPath><clipPath id="id33"><path d="M 115.984375 72 L 626 72 L 626 222 L 115.984375 222 Z M 115.984375 72 " clip-rule="nonzero"/></clipPath><clipPath id="id34"><path d="M 623 65 L 628.441406 65 L 628.441406 84 L 623 84 Z M 623 65 " clip-rule="nonzero"/></clipPath><clipPath id="id35"><path d="M 240 53.894531 L 354 53.894531 L 354 66 L 240 66 Z M 240 53.894531 " clip-rule="nonzero"/></clipPath><clipPath id="id36"><path d="M 115.984375 497 L 145 497 L 145 524 L 115.984375 524 Z M 115.984375 497 " clip-rule="nonzero"/></clipPath></defs><g clip-path="url(#id1)"><path fill="#00c4cc" d="M 628.441406 566.351562 L 628.441406 553.203125 C 627.601562 552.941406 626.710938 552.796875 625.785156 552.796875 C 620.90625 552.796875 616.949219 556.753906 616.949219 561.632812 C 616.949219 563.371094 617.460938 564.980469 618.324219 566.351562 L 628.441406 566.351562 " fill-opacity="1" fill-rule="nonzero"/></g><g clip-path="url(#id2)"><path fill="#00c4cc" d="M 115.984375 417.34375 L 180.53125 417.34375 L 277.703125 514.515625 L 405.796875 514.515625 L 454.382812 563.101562 L 625.785156 563.101562 L 625.785156 560.160156 L 455.601562 560.160156 L 407.015625 511.574219 L 278.925781 511.574219 L 181.75 414.402344 L 115.984375 414.402344 L 115.984375 417.34375 " fill-opacity="1" fill-rule="nonzero"/></g><path fill="#00c4cc" d="M 401.992188 507.15625 C 397.109375 507.15625 393.15625 503.199219 393.15625 498.324219 C 393.15625 493.445312 397.109375 489.488281 401.992188 489.488281 C 406.867188 489.488281 410.824219 493.445312 410.824219 498.324219 C 410.824219 503.199219 406.867188 507.15625 401.992188 507.15625 " fill-opacity="1" fill-rule="nonzero"/><g clip-path="url(#id3)"><path fill="#00c4cc" d="M 115.984375 402.621094 L 183.476562 402.621094 L 280.648438 499.792969 L 409.351562 499.792969 L 409.351562 496.851562 L 281.867188 496.851562 L 184.695312 399.675781 L 115.984375 399.675781 L 115.984375 402.621094 " fill-opacity="1" fill-rule="nonzero"/></g><path fill="#00c4cc" d="M 519.777344 538.074219 C 514.898438 538.074219 510.941406 534.121094 510.941406 529.238281 C 510.941406 524.363281 514.898438 520.410156 519.777344 520.410156 C 524.652344 520.410156 528.609375 524.363281 528.609375 529.238281 C 528.609375 534.121094 524.652344 538.074219 519.777344 538.074219 " fill-opacity="1" fill-rule="nonzero"/><g clip-path="url(#id4)"><path fill="#00c4cc" d="M 115.984375 387.898438 L 190.835938 387.898438 L 288.007812 485.070312 L 416.105469 485.070312 L 461.746094 530.714844 L 519.777344 530.714844 L 519.777344 527.769531 L 462.964844 527.769531 L 417.320312 482.128906 L 289.230469 482.128906 L 192.058594 384.953125 L 115.984375 384.953125 L 115.984375 387.898438 " fill-opacity="1" fill-rule="nonzero"/></g><path fill="#00c4cc" d="M 587.503906 546.910156 C 582.625 546.910156 578.667969 542.953125 578.667969 538.074219 C 578.667969 533.195312 582.625 529.238281 587.503906 529.238281 C 592.382812 529.238281 596.335938 533.195312 596.335938 538.074219 C 596.335938 542.953125 592.382812 546.910156 587.503906 546.910156 " fill-opacity="1" fill-rule="nonzero"/><g clip-path="url(#id5)"><path fill="#00c4cc" d="M 115.984375 376.117188 L 192.308594 376.117188 L 289.484375 473.292969 L 417.574219 473.292969 L 463.21875 518.933594 L 569.226562 518.933594 L 586.460938 536.167969 L 588.542969 534.089844 L 570.445312 515.988281 L 464.4375 515.988281 L 418.796875 470.347656 L 290.703125 470.347656 L 193.527344 373.175781 L 115.984375 373.175781 L 115.984375 376.117188 " fill-opacity="1" fill-rule="nonzero"/></g><g clip-path="url(#id6)"><path fill="#00c4cc" d="M 115.984375 467.402344 L 152.554688 467.402344 L 251.503906 566.351562 L 255.667969 566.351562 L 153.777344 464.457031 L 115.984375 464.457031 L 115.984375 467.402344 " fill-opacity="1" fill-rule="nonzero"/></g><path fill="#00c4cc" d="M 266.535156 561.632812 C 261.65625 561.632812 257.703125 557.679688 257.703125 552.796875 C 257.703125 547.917969 261.65625 543.964844 266.535156 543.964844 C 271.414062 543.964844 275.367188 547.917969 275.367188 552.796875 C 275.367188 557.679688 271.414062 561.632812 266.535156 561.632812 " fill-opacity="1" fill-rule="nonzero"/><g clip-path="url(#id7)"><path fill="#00c4cc" d="M 115.984375 455.625 L 167.277344 455.625 L 264.019531 552.367188 L 266.101562 550.285156 L 168.5 452.679688 L 115.984375 452.679688 L 115.984375 455.625 " fill-opacity="1" fill-rule="nonzero"/></g><g clip-path="url(#id8)"><path fill="#00c4cc" d="M 115.984375 442.371094 L 173.171875 442.371094 L 270.34375 539.546875 L 398.433594 539.546875 L 425.238281 566.351562 L 429.402344 566.351562 L 399.65625 536.601562 L 271.5625 536.601562 L 174.386719 439.429688 L 115.984375 439.429688 L 115.984375 442.371094 " fill-opacity="1" fill-rule="nonzero"/></g><g clip-path="url(#id9)"><path fill="#00c4cc" d="M 115.984375 429.121094 L 174.640625 429.121094 L 271.816406 526.296875 L 399.910156 526.296875 L 439.960938 566.351562 L 444.125 566.351562 L 401.128906 523.351562 L 273.035156 523.351562 L 175.859375 426.179688 L 115.984375 426.179688 L 115.984375 429.121094 " fill-opacity="1" fill-rule="nonzero"/></g><g clip-path="url(#id10)"><path fill="#00c4cc" d="M 115.984375 482.128906 L 145.195312 482.128906 L 229.417969 566.351562 L 233.582031 566.351562 L 146.414062 479.183594 L 115.984375 479.183594 L 115.984375 482.128906 " fill-opacity="1" fill-rule="nonzero"/></g><path fill="#00c4cc" d="M 507.996094 382.007812 C 503.117188 382.007812 499.164062 378.050781 499.164062 373.175781 C 499.164062 368.296875 503.117188 364.339844 507.996094 364.339844 C 512.875 364.339844 516.832031 368.296875 516.832031 373.175781 C 516.832031 378.050781 512.875 382.007812 507.996094 382.007812 " fill-opacity="1" fill-rule="nonzero"/><g clip-path="url(#id11)"><path fill="#00c4cc" d="M 225.921875 362.867188 L 115.984375 362.867188 L 115.984375 365.8125 L 224.699219 365.8125 L 268.871094 392.902344 L 464.359375 392.902344 L 508.941406 372.832031 L 507.054688 370.570312 L 463.296875 389.957031 L 270.089844 389.957031 L 225.921875 362.867188 " fill-opacity="1" fill-rule="nonzero"/></g><path fill="#00c4cc" d="M 231.199219 399.675781 C 226.320312 399.675781 222.363281 395.722656 222.363281 390.84375 C 222.363281 385.964844 226.320312 382.007812 231.199219 382.007812 C 236.078125 382.007812 240.035156 385.964844 240.035156 390.84375 C 240.035156 395.722656 236.078125 399.675781 231.199219 399.675781 " fill-opacity="1" fill-rule="nonzero"/><path fill="#00c4cc" d="M 475.605469 479.183594 C 470.730469 479.183594 466.773438 475.226562 466.773438 470.347656 C 466.773438 465.46875 470.730469 461.511719 475.605469 461.511719 C 480.484375 461.511719 484.441406 465.46875 484.441406 470.347656 C 484.441406 475.226562 480.484375 479.183594 475.605469 479.183594 " fill-opacity="1" fill-rule="nonzero"/><path fill="#00c4cc" d="M 230.15625 391.882812 L 232.238281 389.800781 L 277.449219 435.011719 L 443.824219 435.011719 L 479.59375 470.78125 L 477.507812 472.859375 L 442.605469 437.957031 L 276.230469 437.957031 L 230.15625 391.882812 " fill-opacity="1" fill-rule="nonzero"/><path fill="#00c4cc" d="M 323.222656 366.191406 C 318.34375 366.191406 314.386719 362.238281 314.386719 357.359375 C 314.386719 352.480469 318.34375 348.523438 323.222656 348.523438 C 328.097656 348.523438 332.054688 352.480469 332.054688 357.359375 C 332.054688 362.238281 328.097656 366.191406 323.222656 366.191406 " fill-opacity="1" fill-rule="nonzero"/><path fill="#00c4cc" d="M 619.160156 366.191406 C 614.28125 366.191406 610.324219 362.238281 610.324219 357.359375 C 610.324219 352.480469 614.28125 348.523438 619.160156 348.523438 C 624.039062 348.523438 627.992188 352.480469 627.992188 357.359375 C 627.992188 362.238281 624.039062 366.191406 619.160156 366.191406 " fill-opacity="1" fill-rule="nonzero"/><path fill="#00c4cc" d="M 324.691406 358.832031 L 324.691406 355.886719 L 619.160156 355.886719 L 619.160156 358.832031 L 324.691406 358.832031 " fill-opacity="1" fill-rule="nonzero"/><g clip-path="url(#id12)"><path fill="#00c4cc" d="M 628.441406 473.292969 L 614.613281 473.292969 L 582.226562 440.902344 L 488.859375 440.902344 L 488.859375 443.847656 L 581.003906 443.847656 L 613.394531 476.234375 L 628.441406 476.234375 L 628.441406 473.292969 " fill-opacity="1" fill-rule="nonzero"/></g><g clip-path="url(#id13)"><path fill="#00c4cc" d="M 628.441406 416.445312 L 610.199219 398.203125 L 553.640625 398.203125 L 553.640625 401.148438 L 608.980469 401.148438 L 628.441406 420.609375 L 628.441406 416.445312 " fill-opacity="1" fill-rule="nonzero"/></g><path fill="#00c4cc" d="M 553.640625 399.675781 C 553.640625 395.617188 550.335938 392.3125 546.28125 392.3125 C 542.21875 392.3125 538.917969 395.617188 538.917969 399.675781 C 538.917969 403.734375 542.21875 407.039062 546.28125 407.039062 C 550.335938 407.039062 553.640625 403.734375 553.640625 399.675781 Z M 535.96875 399.675781 C 535.96875 393.992188 540.59375 389.367188 546.28125 389.367188 C 551.960938 389.367188 556.585938 393.992188 556.585938 399.675781 C 556.585938 405.359375 551.960938 409.984375 546.28125 409.984375 C 540.59375 409.984375 535.96875 405.359375 535.96875 399.675781 " fill-opacity="1" fill-rule="nonzero"/><path fill="#00c4cc" d="M 488.859375 442.371094 C 488.859375 438.316406 485.554688 435.011719 481.496094 435.011719 C 477.433594 435.011719 474.136719 438.316406 474.136719 442.371094 C 474.136719 446.433594 477.433594 449.734375 481.496094 449.734375 C 485.554688 449.734375 488.859375 446.433594 488.859375 442.371094 Z M 471.191406 442.371094 C 471.191406 436.691406 475.8125 432.066406 481.496094 432.066406 C 487.175781 432.066406 491.800781 436.691406 491.800781 442.371094 C 491.800781 448.054688 487.175781 452.679688 481.496094 452.679688 C 475.8125 452.679688 471.191406 448.054688 471.191406 442.371094 " fill-opacity="1" fill-rule="nonzero"/><path fill="#00c4cc" d="M 519.777344 96.375 C 514.898438 96.375 510.941406 100.332031 510.941406 105.207031 C 510.941406 110.089844 514.898438 114.042969 519.777344 114.042969 C 524.652344 114.042969 528.609375 110.089844 528.609375 105.207031 C 528.609375 100.332031 524.652344 96.375 519.777344 96.375 " fill-opacity="1" fill-rule="nonzero"/><g clip-path="url(#id14)"><path fill="#00c4cc" d="M 288.007812 149.382812 L 190.835938 246.554688 L 115.984375 246.554688 L 115.984375 249.496094 L 192.058594 249.496094 L 289.230469 152.324219 L 417.320312 152.324219 L 462.964844 106.683594 L 519.777344 106.683594 L 519.777344 103.738281 L 461.746094 103.738281 L 416.105469 149.382812 L 288.007812 149.382812 " fill-opacity="1" fill-rule="nonzero"/></g><path fill="#00c4cc" d="M 587.503906 89.015625 C 582.625 89.015625 578.667969 92.972656 578.667969 97.847656 C 578.667969 102.726562 582.625 106.683594 587.503906 106.683594 C 592.382812 106.683594 596.335938 102.726562 596.335938 97.847656 C 596.335938 92.972656 592.382812 89.015625 587.503906 89.015625 " fill-opacity="1" fill-rule="nonzero"/><g clip-path="url(#id15)"><path fill="#00c4cc" d="M 463.21875 116.988281 L 417.574219 162.628906 L 289.484375 162.628906 L 192.308594 259.804688 L 115.984375 259.804688 L 115.984375 262.75 L 193.527344 262.75 L 290.703125 165.574219 L 418.796875 165.574219 L 464.4375 119.929688 L 570.445312 119.929688 L 588.542969 101.835938 L 586.460938 99.753906 L 569.226562 116.988281 L 463.21875 116.988281 " fill-opacity="1" fill-rule="nonzero"/></g><path fill="#00c4cc" d="M 266.535156 75.761719 C 261.65625 75.761719 257.703125 79.71875 257.703125 84.597656 C 257.703125 89.472656 261.65625 93.429688 266.535156 93.429688 C 271.414062 93.429688 275.367188 89.472656 275.367188 84.597656 C 275.367188 79.71875 271.414062 75.761719 266.535156 75.761719 " fill-opacity="1" fill-rule="nonzero"/><g clip-path="url(#id16)"><path fill="#00c4cc" d="M 115.984375 181.769531 L 115.984375 184.714844 L 168.5 184.714844 L 266.101562 87.109375 L 264.019531 85.027344 L 167.277344 181.769531 L 115.984375 181.769531 " fill-opacity="1" fill-rule="nonzero"/></g><g clip-path="url(#id17)"><path fill="#00c4cc" d="M 508.878906 53.894531 L 492.394531 53.894531 C 493.667969 57.207031 496.871094 59.566406 500.636719 59.566406 C 504.398438 59.566406 507.605469 57.207031 508.878906 53.894531 " fill-opacity="1" fill-rule="nonzero"/></g><g clip-path="url(#id18)"><path fill="#00c4cc" d="M 270.34375 96.375 L 173.171875 193.550781 L 115.984375 193.550781 L 115.984375 196.492188 L 174.386719 196.492188 L 271.5625 99.320312 L 399.65625 99.320312 L 445.082031 53.894531 L 440.917969 53.894531 L 398.433594 96.375 L 270.34375 96.375 " fill-opacity="1" fill-rule="nonzero"/></g><g clip-path="url(#id19)"><path fill="#00c4cc" d="M 445.550781 63.984375 L 399.910156 109.625 L 271.816406 109.625 L 174.640625 206.800781 L 115.984375 206.800781 L 115.984375 209.746094 L 175.859375 209.746094 L 273.035156 112.570312 L 401.128906 112.570312 L 446.769531 66.929688 L 552.777344 66.929688 L 565.8125 53.894531 L 561.648438 53.894531 L 551.558594 63.984375 L 445.550781 63.984375 " fill-opacity="1" fill-rule="nonzero"/></g><g clip-path="url(#id20)"><path fill="#00c4cc" d="M 115.984375 159.6875 L 115.984375 162.628906 L 127.273438 162.628906 L 236.011719 53.894531 L 231.847656 53.894531 L 126.054688 159.6875 L 115.984375 159.6875 " fill-opacity="1" fill-rule="nonzero"/></g><path fill="#00c4cc" d="M 385.792969 55.148438 C 380.914062 55.148438 376.960938 59.105469 376.960938 63.984375 C 376.960938 68.863281 380.914062 72.820312 385.792969 72.820312 C 390.671875 72.820312 394.628906 68.863281 394.628906 63.984375 C 394.628906 59.105469 390.671875 55.148438 385.792969 55.148438 " fill-opacity="1" fill-rule="nonzero"/><g clip-path="url(#id21)"><path fill="#00c4cc" d="M 397.96875 53.894531 L 393.804688 53.894531 L 384.753906 62.945312 L 386.835938 65.027344 L 397.96875 53.894531 " fill-opacity="1" fill-rule="nonzero"/></g><path fill="#00c4cc" d="M 145.800781 118.460938 C 140.925781 118.460938 136.972656 114.507812 136.972656 109.625 C 136.972656 104.746094 140.925781 100.792969 145.800781 100.792969 C 150.683594 100.792969 154.636719 104.746094 154.636719 109.625 C 154.636719 114.507812 150.683594 118.460938 145.800781 118.460938 " fill-opacity="1" fill-rule="nonzero"/><g clip-path="url(#id22)"><path fill="#00c4cc" d="M 115.984375 143.003906 L 146.847656 112.140625 L 144.761719 110.058594 L 115.984375 138.839844 L 115.984375 143.003906 " fill-opacity="1" fill-rule="nonzero"/></g><path fill="#00c4cc" d="M 215.003906 86.066406 C 210.125 86.066406 206.167969 90.023438 206.167969 94.902344 C 206.167969 99.78125 210.125 103.738281 215.003906 103.738281 C 219.882812 103.738281 223.839844 99.78125 223.839844 94.902344 C 223.839844 90.023438 219.882812 86.066406 215.003906 86.066406 " fill-opacity="1" fill-rule="nonzero"/><g clip-path="url(#id23)"><path fill="#00c4cc" d="M 115.984375 171.464844 L 115.984375 174.410156 L 140.523438 174.410156 L 217.515625 97.417969 L 215.433594 95.335938 L 139.308594 171.464844 L 115.984375 171.464844 " fill-opacity="1" fill-rule="nonzero"/></g><g clip-path="url(#id24)"><path fill="#00c4cc" d="M 305.679688 200.910156 L 208.503906 298.082031 L 115.984375 298.082031 L 115.984375 301.03125 L 209.722656 301.03125 L 306.894531 203.855469 L 434.992188 203.855469 L 483.578125 155.269531 L 628.441406 155.269531 L 628.441406 152.324219 L 482.359375 152.324219 L 433.773438 200.910156 L 305.679688 200.910156 " fill-opacity="1" fill-rule="nonzero"/></g><path fill="#00c4cc" d="M 429.960938 208.273438 C 425.085938 208.273438 421.132812 212.226562 421.132812 217.109375 C 421.132812 221.984375 425.085938 225.9375 429.960938 225.9375 C 434.84375 225.9375 438.796875 221.984375 438.796875 217.109375 C 438.796875 212.226562 434.84375 208.273438 429.960938 208.273438 " fill-opacity="1" fill-rule="nonzero"/><g clip-path="url(#id25)"><path fill="#00c4cc" d="M 115.984375 312.808594 L 115.984375 315.753906 L 212.667969 315.753906 L 309.84375 218.578125 L 437.324219 218.578125 L 437.324219 215.632812 L 308.625 215.632812 L 211.449219 312.808594 L 115.984375 312.808594 " fill-opacity="1" fill-rule="nonzero"/></g><path fill="#00c4cc" d="M 499.53125 167.414062 C 494.652344 167.414062 490.695312 171.371094 490.695312 176.25 C 490.695312 181.128906 494.652344 185.082031 499.53125 185.082031 C 504.410156 185.082031 508.367188 181.128906 508.367188 176.25 C 508.367188 171.371094 504.410156 167.414062 499.53125 167.414062 " fill-opacity="1" fill-rule="nonzero"/><g clip-path="url(#id26)"><path fill="#00c4cc" d="M 315.984375 230.355469 L 218.8125 327.535156 L 115.984375 327.535156 L 115.984375 330.476562 L 220.027344 330.476562 L 317.207031 233.300781 L 445.296875 233.300781 L 499.039062 179.5625 L 494.875 179.5625 L 444.078125 230.355469 L 315.984375 230.355469 " fill-opacity="1" fill-rule="nonzero"/></g><path fill="#00c4cc" d="M 590.449219 189.5 C 585.570312 189.5 581.613281 193.457031 581.613281 198.335938 C 581.613281 203.210938 585.570312 207.167969 590.449219 207.167969 C 595.328125 207.167969 599.28125 203.210938 599.28125 198.335938 C 599.28125 193.457031 595.328125 189.5 590.449219 189.5 " fill-opacity="1" fill-rule="nonzero"/><g clip-path="url(#id27)"><path fill="#00c4cc" d="M 317.460938 242.136719 L 220.28125 339.308594 L 115.984375 339.308594 L 115.984375 342.253906 L 221.503906 342.253906 L 318.675781 245.082031 L 446.769531 245.082031 L 492.410156 199.4375 L 590.816406 199.4375 L 590.816406 196.492188 L 491.195312 196.492188 L 445.550781 242.136719 L 317.460938 242.136719 " fill-opacity="1" fill-rule="nonzero"/></g><path fill="#00c4cc" d="M 528.609375 121.40625 C 523.734375 121.40625 519.777344 125.359375 519.777344 130.242188 C 519.777344 135.117188 523.734375 139.070312 528.609375 139.070312 C 533.488281 139.070312 537.445312 135.117188 537.445312 130.242188 C 537.445312 125.359375 533.488281 121.40625 528.609375 121.40625 " fill-opacity="1" fill-rule="nonzero"/><g clip-path="url(#id28)"><path fill="#00c4cc" d="M 298.316406 175.882812 L 201.140625 273.054688 L 115.984375 273.054688 L 115.984375 276 L 202.363281 276 L 299.535156 178.828125 L 427.628906 178.828125 L 473.269531 133.183594 L 530.082031 133.183594 L 530.082031 130.242188 L 472.050781 130.242188 L 426.410156 175.882812 L 298.316406 175.882812 " fill-opacity="1" fill-rule="nonzero"/></g><path fill="#00c4cc" d="M 599.28125 115.515625 C 594.402344 115.515625 590.449219 119.472656 590.449219 124.347656 C 590.449219 129.230469 594.402344 133.183594 599.28125 133.183594 C 604.160156 133.183594 608.113281 129.230469 608.113281 124.347656 C 608.113281 119.472656 604.160156 115.515625 599.28125 115.515625 " fill-opacity="1" fill-rule="nonzero"/><g clip-path="url(#id29)"><path fill="#00c4cc" d="M 473.523438 143.488281 L 427.882812 189.132812 L 299.789062 189.132812 L 202.617188 286.304688 L 115.984375 286.304688 L 115.984375 289.25 L 203.835938 289.25 L 301.007812 192.074219 L 429.101562 192.074219 L 474.742188 146.433594 L 580.75 146.433594 L 598.851562 128.335938 L 596.769531 126.253906 L 579.53125 143.488281 L 473.523438 143.488281 " fill-opacity="1" fill-rule="nonzero"/></g><path fill="#00c4cc" d="M 535.96875 333.421875 C 531.09375 333.421875 527.140625 337.375 527.140625 342.253906 C 527.140625 347.132812 531.09375 351.089844 535.96875 351.089844 C 540.851562 351.089844 544.804688 347.132812 544.804688 342.253906 C 544.804688 337.375 540.851562 333.421875 535.96875 333.421875 " fill-opacity="1" fill-rule="nonzero"/><g clip-path="url(#id30)"><path fill="#00c4cc" d="M 115.984375 349.617188 L 115.984375 352.5625 L 253.894531 352.5625 L 298.066406 336.578125 L 491.269531 336.578125 L 535.03125 344.859375 L 536.914062 342.597656 L 492.335938 333.632812 L 296.84375 333.632812 L 252.675781 349.617188 L 115.984375 349.617188 " fill-opacity="1" fill-rule="nonzero"/></g><g clip-path="url(#id31)"><path fill="#00c4cc" d="M 628.441406 323.117188 L 583.695312 323.117188 L 535.109375 274.527344 L 382.851562 274.527344 L 382.851562 277.472656 L 533.890625 277.472656 L 582.480469 326.058594 L 628.441406 326.058594 L 628.441406 323.117188 " fill-opacity="1" fill-rule="nonzero"/></g><path fill="#00c4cc" d="M 382.851562 267.167969 C 377.96875 267.167969 374.015625 271.121094 374.015625 276 C 374.015625 280.878906 377.96875 284.835938 382.851562 284.835938 C 387.726562 284.835938 391.683594 280.878906 391.683594 276 C 391.683594 271.121094 387.726562 267.167969 382.851562 267.167969 " fill-opacity="1" fill-rule="nonzero"/><path fill="#00c4cc" d="M 460.144531 303.0625 C 455.269531 303.0625 451.3125 307.019531 451.3125 311.894531 C 451.3125 316.773438 455.269531 320.730469 460.144531 320.730469 C 465.023438 320.730469 468.980469 316.773438 468.980469 311.894531 C 468.980469 307.019531 465.023438 303.0625 460.144531 303.0625 " fill-opacity="1" fill-rule="nonzero"/><path fill="#00c4cc" d="M 279.050781 310.425781 L 279.050781 313.371094 L 460.144531 313.371094 L 460.144531 310.425781 L 279.050781 310.425781 " fill-opacity="1" fill-rule="nonzero"/><g clip-path="url(#id32)"><path fill="#00c4cc" d="M 115.984375 233.300781 L 115.984375 236.25 L 184.695312 236.25 L 281.867188 139.070312 L 399.382812 139.070312 C 399.464844 138.09375 399.550781 137.109375 399.617188 136.128906 L 280.648438 136.128906 L 183.476562 233.300781 L 115.984375 233.300781 " fill-opacity="1" fill-rule="nonzero"/></g><path fill="#00c4cc" d="M 407.140625 142.84375 C 410.210938 142.84375 412.710938 140.351562 412.710938 137.28125 C 412.710938 134.207031 410.210938 131.710938 407.140625 131.710938 C 404.074219 131.710938 401.578125 134.207031 401.578125 137.28125 C 401.578125 140.351562 404.074219 142.84375 407.140625 142.84375 Z M 407.140625 127.292969 C 412.648438 127.292969 417.128906 131.773438 417.128906 137.28125 C 417.128906 142.785156 412.648438 147.261719 407.140625 147.261719 C 401.636719 147.261719 397.160156 142.785156 397.160156 137.28125 C 397.160156 131.773438 401.636719 127.292969 407.140625 127.292969 " fill-opacity="1" fill-rule="nonzero"/><g clip-path="url(#id33)"><path fill="#00c4cc" d="M 277.703125 121.40625 L 180.53125 218.578125 L 115.984375 218.578125 L 115.984375 221.527344 L 181.75 221.527344 L 278.925781 124.347656 L 407.015625 124.347656 L 455.601562 75.761719 L 625.785156 75.761719 L 625.785156 72.820312 L 454.382812 72.820312 L 405.796875 121.40625 L 277.703125 121.40625 " fill-opacity="1" fill-rule="nonzero"/></g><g clip-path="url(#id34)"><path fill="#00c4cc" d="M 628.441406 77.25 C 627.894531 76.394531 627.578125 75.378906 627.578125 74.289062 C 627.578125 73.203125 627.894531 72.1875 628.441406 71.328125 L 628.441406 65.488281 C 625.300781 67.175781 623.160156 70.488281 623.160156 74.289062 C 623.160156 78.09375 625.300781 81.40625 628.441406 83.09375 L 628.441406 77.25 " fill-opacity="1" fill-rule="nonzero"/></g><g clip-path="url(#id35)"><path fill="#00c4cc" d="M 353.105469 62.511719 L 248.003906 62.511719 L 256.625 53.894531 L 252.460938 53.894531 L 240.898438 65.457031 L 352.851562 65.457031 C 352.910156 64.476562 352.996094 63.492188 353.105469 62.511719 " fill-opacity="1" fill-rule="nonzero"/></g><path fill="#00c4cc" d="M 362.234375 70.289062 C 365.304688 70.289062 367.804688 67.792969 367.804688 64.71875 C 367.804688 61.648438 365.304688 59.152344 362.234375 59.152344 C 359.167969 59.152344 356.671875 61.648438 356.671875 64.71875 C 356.671875 67.792969 359.167969 70.289062 362.234375 70.289062 Z M 362.234375 54.738281 C 367.742188 54.738281 372.222656 59.214844 372.222656 64.71875 C 372.222656 70.226562 367.742188 74.703125 362.234375 74.703125 C 356.730469 74.703125 352.253906 70.226562 352.253906 64.71875 C 352.253906 59.214844 356.730469 54.738281 362.234375 54.738281 " fill-opacity="1" fill-rule="nonzero"/><path fill="#00c4cc" d="M 273.898438 306.917969 L 275.980469 309 L 321.1875 263.789062 L 487.5625 263.789062 L 523.328125 228.023438 L 521.246094 225.9375 L 486.34375 260.847656 L 319.972656 260.847656 L 273.898438 306.917969 " fill-opacity="1" fill-rule="nonzero"/><path fill="#00c4cc" d="M 526.402344 227.828125 C 529.472656 227.828125 531.96875 225.328125 531.96875 222.257812 C 531.96875 219.191406 529.472656 216.691406 526.402344 216.691406 C 523.332031 216.691406 520.832031 219.191406 520.832031 222.257812 C 520.832031 225.328125 523.332031 227.828125 526.402344 227.828125 Z M 526.402344 212.273438 C 531.90625 212.273438 536.386719 216.753906 536.386719 222.257812 C 536.386719 227.765625 531.90625 232.246094 526.402344 232.246094 C 520.898438 232.246094 516.417969 227.765625 516.417969 222.257812 C 516.417969 216.753906 520.898438 212.273438 526.402344 212.273438 " fill-opacity="1" fill-rule="nonzero"/><path fill="#00c4cc" d="M 270.949219 317.316406 C 274.019531 317.316406 276.519531 314.820312 276.519531 311.75 C 276.519531 308.679688 274.019531 306.183594 270.949219 306.183594 C 267.882812 306.183594 265.386719 308.679688 265.386719 311.75 C 265.386719 314.820312 267.882812 317.316406 270.949219 317.316406 Z M 270.949219 301.765625 C 276.460938 301.765625 280.9375 306.246094 280.9375 311.75 C 280.9375 317.257812 276.460938 321.734375 270.949219 321.734375 C 265.445312 321.734375 260.96875 317.257812 260.96875 311.75 C 260.96875 306.246094 265.445312 301.765625 270.949219 301.765625 " fill-opacity="1" fill-rule="nonzero"/><g clip-path="url(#id36)"><path fill="#00c4cc" d="M 115.984375 501.742188 L 142.527344 523.863281 L 144.410156 521.601562 L 115.984375 497.910156 L 115.984375 501.742188 " fill-opacity="1" fill-rule="nonzero"/></g><path fill="#00c4cc" d="M 148.621094 532.484375 C 151.691406 532.484375 154.191406 529.988281 154.191406 526.917969 C 154.191406 523.847656 151.691406 521.347656 148.621094 521.347656 C 145.550781 521.347656 143.054688 523.847656 143.054688 526.917969 C 143.054688 529.988281 145.550781 532.484375 148.621094 532.484375 Z M 148.621094 516.933594 C 154.125 516.933594 158.609375 521.414062 158.609375 526.917969 C 158.609375 532.421875 154.125 536.898438 148.621094 536.898438 C 143.117188 536.898438 138.636719 532.421875 138.636719 526.917969 C 138.636719 521.414062 143.117188 516.933594 148.621094 516.933594 " fill-opacity="1" fill-rule="nonzero"/></svg>