<svg xmlns="http://www.w3.org/2000/svg" xmlns:xlink="http://www.w3.org/1999/xlink" width="755" zoomAndPan="magnify" viewBox="0 0 567 567.000005" height="755" preserveAspectRatio="xMidYMid meet" version="1.0"><defs><clipPath id="id1"><path d="M 0.5 467 L 564 467 L 564 566 L 0.5 566 Z M 0.5 467 " clip-rule="nonzero"/></clipPath><clipPath id="id2"><path d="M 265 563 L 288 563 L 288 566 L 265 566 Z M 265 563 " clip-rule="nonzero"/></clipPath><clipPath id="id3"><path d="M 0.5 448 L 287 448 L 287 566 L 0.5 566 Z M 0.5 448 " clip-rule="nonzero"/></clipPath><clipPath id="id4"><path d="M 0.5 429 L 428 429 L 428 566 L 0.5 566 Z M 0.5 429 " clip-rule="nonzero"/></clipPath><clipPath id="id5"><path d="M 0.5 414 L 516 414 L 516 566 L 0.5 566 Z M 0.5 414 " clip-rule="nonzero"/></clipPath><clipPath id="id6"><path d="M 0.5 531 L 90 531 L 90 566 L 0.5 566 Z M 0.5 531 " clip-rule="nonzero"/></clipPath><clipPath id="id7"><path d="M 0.5 516 L 103 516 L 103 566 L 0.5 566 Z M 0.5 516 " clip-rule="nonzero"/></clipPath><clipPath id="id8"><path d="M 0.5 499 L 312 499 L 312 566 L 0.5 566 Z M 0.5 499 " clip-rule="nonzero"/></clipPath><clipPath id="id9"><path d="M 0.5 482 L 331 482 L 331 566 L 0.5 566 Z M 0.5 482 " clip-rule="nonzero"/></clipPath><clipPath id="id10"><path d="M 0.5 550 L 62 550 L 62 566 L 0.5 566 Z M 0.5 550 " clip-rule="nonzero"/></clipPath><clipPath id="id11"><path d="M 0.5 401 L 414 401 L 414 440 L 0.5 440 Z M 0.5 401 " clip-rule="nonzero"/></clipPath><clipPath id="id12"><path d="M 387 501 L 566.421875 501 L 566.421875 547 L 387 547 Z M 387 501 " clip-rule="nonzero"/></clipPath><clipPath id="id13"><path d="M 470 446 L 566.421875 446 L 566.421875 476 L 470 476 Z M 470 446 " clip-rule="nonzero"/></clipPath><clipPath id="id14"><path d="M 0.5 69 L 428 69 L 428 257 L 0.5 257 Z M 0.5 69 " clip-rule="nonzero"/></clipPath><clipPath id="id15"><path d="M 0.5 64 L 516 64 L 516 274 L 0.5 274 Z M 0.5 64 " clip-rule="nonzero"/></clipPath><clipPath id="id16"><path d="M 91 41.988281 L 115 41.988281 L 115 57 L 91 57 Z M 91 41.988281 " clip-rule="nonzero"/></clipPath><clipPath id="id17"><path d="M 0.5 45 L 103 45 L 103 174 L 0.5 174 Z M 0.5 45 " clip-rule="nonzero"/></clipPath><clipPath id="id18"><path d="M 0.5 41.988281 L 332 41.988281 L 332 189 L 0.5 189 Z M 0.5 41.988281 " clip-rule="nonzero"/></clipPath><clipPath id="id19"><path d="M 0.5 41.988281 L 487 41.988281 L 487 206 L 0.5 206 Z M 0.5 41.988281 " clip-rule="nonzero"/></clipPath><clipPath id="id20"><path d="M 0.5 41.988281 L 65 41.988281 L 65 146 L 0.5 146 Z M 0.5 41.988281 " clip-rule="nonzero"/></clipPath><clipPath id="id21"><path d="M 0.5 59 L 41 59 L 41 161 L 0.5 161 Z M 0.5 59 " clip-rule="nonzero"/></clipPath><clipPath id="id22"><path d="M 0.5 131 L 566.421875 131 L 566.421875 323 L 0.5 323 Z M 0.5 131 " clip-rule="nonzero"/></clipPath><clipPath id="id23"><path d="M 0.5 213 L 322 213 L 322 342 L 0.5 342 Z M 0.5 213 " clip-rule="nonzero"/></clipPath><clipPath id="id24"><path d="M 0.5 166 L 401 166 L 401 360 L 0.5 360 Z M 0.5 166 " clip-rule="nonzero"/></clipPath><clipPath id="id25"><path d="M 0.5 188 L 519 188 L 519 376 L 0.5 376 Z M 0.5 188 " clip-rule="nonzero"/></clipPath><clipPath id="id26"><path d="M 0.5 103 L 441 103 L 441 291 L 0.5 291 Z M 0.5 103 " clip-rule="nonzero"/></clipPath><clipPath id="id27"><path d="M 0.5 98 L 529 98 L 529 308 L 0.5 308 Z M 0.5 98 " clip-rule="nonzero"/></clipPath><clipPath id="id28"><path d="M 0.5 364 L 450 364 L 450 389 L 0.5 389 Z M 0.5 364 " clip-rule="nonzero"/></clipPath><clipPath id="id29"><path d="M 252 288 L 566.421875 288 L 566.421875 355 L 252 355 Z M 252 288 " clip-rule="nonzero"/></clipPath><clipPath id="id30"><path d="M 0.5 111 L 274 111 L 274 240 L 0.5 240 Z M 0.5 111 " clip-rule="nonzero"/></clipPath><clipPath id="id31"><path d="M 0.5 41.988281 L 564 41.988281 L 564 221 L 0.5 221 Z M 0.5 41.988281 " clip-rule="nonzero"/></clipPath><clipPath id="id32"><path d="M 559 41.988281 L 566.421875 41.988281 L 566.421875 44 L 559 44 Z M 559 41.988281 " clip-rule="nonzero"/></clipPath></defs><g clip-path="url(#id1)"><path fill="#9d1c19" d="M -89.421875 471.164062 L -6.816406 471.164062 L 117.546875 595.527344 L 281.484375 595.527344 L 343.664062 657.710938 L 563.023438 657.710938 L 563.023438 653.945312 L 345.222656 653.945312 L 283.042969 591.761719 L 119.109375 591.761719 L -5.25 467.398438 L -89.421875 467.398438 L -89.421875 471.164062 " fill-opacity="1" fill-rule="nonzero"/></g><g clip-path="url(#id2)"><path fill="#9d1c19" d="M 276.609375 586.109375 C 270.363281 586.109375 265.304688 581.046875 265.304688 574.804688 C 265.304688 568.558594 270.363281 563.496094 276.609375 563.496094 C 282.855469 563.496094 287.917969 568.558594 287.917969 574.804688 C 287.917969 581.046875 282.855469 586.109375 276.609375 586.109375 " fill-opacity="1" fill-rule="nonzero"/></g><g clip-path="url(#id3)"><path fill="#9d1c19" d="M -89.421875 452.324219 L -3.042969 452.324219 L 121.316406 576.6875 L 286.03125 576.6875 L 286.03125 572.921875 L 122.875 572.921875 L -1.484375 448.558594 L -89.421875 448.558594 L -89.421875 452.324219 " fill-opacity="1" fill-rule="nonzero"/></g><g clip-path="url(#id4)"><path fill="#9d1c19" d="M -89.421875 433.480469 L 6.375 433.480469 L 130.738281 557.84375 L 294.671875 557.84375 L 353.082031 616.257812 L 427.351562 616.257812 L 427.351562 612.488281 L 354.644531 612.488281 L 296.230469 554.078125 L 132.300781 554.078125 L 7.9375 429.710938 L -89.421875 429.710938 L -89.421875 433.480469 " fill-opacity="1" fill-rule="nonzero"/></g><g clip-path="url(#id5)"><path fill="#9d1c19" d="M -89.421875 418.402344 L 8.257812 418.402344 L 132.625 542.769531 L 296.554688 542.769531 L 354.972656 601.183594 L 490.640625 601.183594 L 512.699219 623.238281 L 515.363281 620.578125 L 492.199219 597.410156 L 356.53125 597.410156 L 298.117188 539 L 134.183594 539 L 9.820312 414.636719 L -89.421875 414.636719 L -89.421875 418.402344 " fill-opacity="1" fill-rule="nonzero"/></g><g clip-path="url(#id6)"><path fill="#9d1c19" d="M -89.421875 535.230469 L -42.617188 535.230469 L 84.015625 661.863281 L 89.347656 661.863281 L -41.054688 531.464844 L -89.421875 531.464844 L -89.421875 535.230469 " fill-opacity="1" fill-rule="nonzero"/></g><g clip-path="url(#id7)"><path fill="#9d1c19" d="M -89.421875 520.15625 L -23.773438 520.15625 L 100.039062 643.96875 L 102.703125 641.304688 L -22.210938 516.386719 L -89.421875 516.386719 L -89.421875 520.15625 " fill-opacity="1" fill-rule="nonzero"/></g><g clip-path="url(#id8)"><path fill="#9d1c19" d="M -89.421875 503.199219 L -16.234375 503.199219 L 108.128906 627.5625 L 272.058594 627.5625 L 306.363281 661.863281 L 311.691406 661.863281 L 273.621094 623.792969 L 109.6875 623.792969 L -14.675781 499.433594 L -89.421875 499.433594 L -89.421875 503.199219 " fill-opacity="1" fill-rule="nonzero"/></g><g clip-path="url(#id9)"><path fill="#9d1c19" d="M -89.421875 486.238281 L -14.351562 486.238281 L 110.011719 610.605469 L 273.945312 610.605469 L 325.207031 661.863281 L 330.535156 661.863281 L 275.503906 606.835938 L 111.574219 606.835938 L -12.792969 482.472656 L -89.421875 482.472656 L -89.421875 486.238281 " fill-opacity="1" fill-rule="nonzero"/></g><g clip-path="url(#id10)"><path fill="#9d1c19" d="M -89.421875 554.078125 L -52.035156 554.078125 L 55.75 661.863281 L 61.078125 661.863281 L -50.476562 550.308594 L -89.421875 550.308594 L -89.421875 554.078125 " fill-opacity="1" fill-rule="nonzero"/></g><path fill="#9d1c19" d="M 412.277344 425.945312 C 406.035156 425.945312 400.972656 420.878906 400.972656 414.636719 C 400.972656 408.394531 406.035156 403.332031 412.277344 403.332031 C 418.523438 403.332031 423.582031 408.394531 423.582031 414.636719 C 423.582031 420.878906 418.523438 425.945312 412.277344 425.945312 " fill-opacity="1" fill-rule="nonzero"/><g clip-path="url(#id11)"><path fill="#9d1c19" d="M 51.277344 401.449219 L -89.421875 401.449219 L -89.421875 405.214844 L 49.714844 405.214844 L 106.246094 439.886719 L 356.429688 439.886719 L 413.484375 414.203125 L 411.070312 411.304688 L 355.070312 436.113281 L 107.804688 436.113281 L 51.277344 401.449219 " fill-opacity="1" fill-rule="nonzero"/></g><path fill="#9d1c19" d="M 58.03125 448.558594 C 51.789062 448.558594 46.722656 443.492188 46.722656 437.25 C 46.722656 431.007812 51.789062 425.945312 58.03125 425.945312 C 64.273438 425.945312 69.335938 431.007812 69.335938 437.25 C 69.335938 443.492188 64.273438 448.558594 58.03125 448.558594 " fill-opacity="1" fill-rule="nonzero"/><path fill="#9d1c19" d="M 370.824219 550.308594 C 364.582031 550.308594 359.519531 545.246094 359.519531 539 C 359.519531 532.757812 364.582031 527.695312 370.824219 527.695312 C 377.066406 527.695312 382.132812 532.757812 382.132812 539 C 382.132812 545.246094 377.066406 550.308594 370.824219 550.308594 " fill-opacity="1" fill-rule="nonzero"/><path fill="#9d1c19" d="M 56.699219 438.582031 L 59.363281 435.914062 L 117.222656 493.777344 L 330.152344 493.777344 L 375.925781 539.554688 L 373.257812 542.214844 L 328.59375 497.550781 L 115.664062 497.550781 L 56.699219 438.582031 " fill-opacity="1" fill-rule="nonzero"/><path fill="#9d1c19" d="M 175.800781 405.703125 C 169.558594 405.703125 164.496094 400.640625 164.496094 394.398438 C 164.496094 388.152344 169.558594 383.09375 175.800781 383.09375 C 182.042969 383.09375 187.109375 388.152344 187.109375 394.398438 C 187.109375 400.640625 182.042969 405.703125 175.800781 405.703125 " fill-opacity="1" fill-rule="nonzero"/><path fill="#9d1c19" d="M 554.542969 405.703125 C 548.300781 405.703125 543.234375 400.640625 543.234375 394.398438 C 543.234375 388.152344 548.300781 383.09375 554.542969 383.09375 C 560.789062 383.09375 565.847656 388.152344 565.847656 394.398438 C 565.847656 400.640625 560.789062 405.703125 554.542969 405.703125 " fill-opacity="1" fill-rule="nonzero"/><path fill="#9d1c19" d="M 177.683594 396.28125 L 177.683594 392.511719 L 554.542969 392.511719 L 554.542969 396.28125 L 177.683594 396.28125 " fill-opacity="1" fill-rule="nonzero"/><g clip-path="url(#id12)"><path fill="#9d1c19" d="M 566.421875 542.769531 L 548.726562 542.769531 L 507.273438 501.316406 L 387.785156 501.316406 L 387.785156 505.085938 L 505.710938 505.085938 L 547.167969 546.535156 L 566.421875 546.535156 L 566.421875 542.769531 " fill-opacity="1" fill-rule="nonzero"/></g><g clip-path="url(#id13)"><path fill="#9d1c19" d="M 566.421875 470.015625 L 543.078125 446.671875 L 470.691406 446.671875 L 470.691406 450.441406 L 541.515625 450.441406 L 566.421875 475.347656 L 566.421875 470.015625 " fill-opacity="1" fill-rule="nonzero"/></g><path fill="#9d1c19" d="M 470.691406 448.558594 C 470.691406 443.359375 466.464844 439.132812 461.273438 439.132812 C 456.074219 439.132812 451.847656 443.359375 451.847656 448.558594 C 451.847656 453.75 456.074219 457.976562 461.273438 457.976562 C 466.464844 457.976562 470.691406 453.75 470.691406 448.558594 Z M 448.078125 448.558594 C 448.078125 441.28125 453.996094 435.363281 461.273438 435.363281 C 468.542969 435.363281 474.460938 441.28125 474.460938 448.558594 C 474.460938 455.828125 468.542969 461.746094 461.273438 461.746094 C 453.996094 461.746094 448.078125 455.828125 448.078125 448.558594 " fill-opacity="1" fill-rule="nonzero"/><path fill="#9d1c19" d="M 387.785156 503.199219 C 387.785156 498.007812 383.558594 493.777344 378.359375 493.777344 C 373.164062 493.777344 368.941406 498.007812 368.941406 503.199219 C 368.941406 508.394531 373.164062 512.621094 378.359375 512.621094 C 383.558594 512.621094 387.785156 508.394531 387.785156 503.199219 Z M 365.171875 503.199219 C 365.171875 495.925781 371.089844 490.007812 378.359375 490.007812 C 385.632812 490.007812 391.550781 495.925781 391.550781 503.199219 C 391.550781 510.46875 385.632812 516.386719 378.359375 516.386719 C 371.089844 516.386719 365.171875 510.46875 365.171875 503.199219 " fill-opacity="1" fill-rule="nonzero"/><path fill="#9d1c19" d="M 427.351562 60.386719 C 421.109375 60.386719 416.046875 65.453125 416.046875 71.695312 C 416.046875 77.941406 421.109375 83 427.351562 83 C 433.59375 83 438.660156 77.941406 438.660156 71.695312 C 438.660156 65.453125 433.59375 60.386719 427.351562 60.386719 " fill-opacity="1" fill-rule="nonzero"/><g clip-path="url(#id14)"><path fill="#9d1c19" d="M 130.738281 128.226562 L 6.375 252.589844 L -89.421875 252.589844 L -89.421875 256.355469 L 7.9375 256.355469 L 132.300781 131.992188 L 296.230469 131.992188 L 354.644531 73.582031 L 427.351562 73.582031 L 427.351562 69.8125 L 353.082031 69.8125 L 294.671875 128.226562 L 130.738281 128.226562 " fill-opacity="1" fill-rule="nonzero"/></g><path fill="#9d1c19" d="M 514.03125 50.96875 C 507.789062 50.96875 502.722656 56.035156 502.722656 62.277344 C 502.722656 68.519531 507.789062 73.582031 514.03125 73.582031 C 520.273438 73.582031 525.335938 68.519531 525.335938 62.277344 C 525.335938 56.035156 520.273438 50.96875 514.03125 50.96875 " fill-opacity="1" fill-rule="nonzero"/><g clip-path="url(#id15)"><path fill="#9d1c19" d="M 354.972656 86.773438 L 296.554688 145.183594 L 132.625 145.183594 L 8.257812 269.550781 L -89.421875 269.550781 L -89.421875 273.316406 L 9.820312 273.316406 L 134.183594 148.953125 L 298.117188 148.953125 L 356.53125 90.539062 L 492.199219 90.539062 L 515.363281 67.378906 L 512.699219 64.714844 L 490.640625 86.773438 L 354.972656 86.773438 " fill-opacity="1" fill-rule="nonzero"/></g><g clip-path="url(#id16)"><path fill="#9d1c19" d="M 103.253906 34.007812 C 97.011719 34.007812 91.949219 39.074219 91.949219 45.316406 C 91.949219 51.558594 97.011719 56.621094 103.253906 56.621094 C 109.5 56.621094 114.558594 51.558594 114.558594 45.316406 C 114.558594 39.074219 109.5 34.007812 103.253906 34.007812 " fill-opacity="1" fill-rule="nonzero"/></g><g clip-path="url(#id17)"><path fill="#9d1c19" d="M -89.421875 169.679688 L -89.421875 173.449219 L -22.210938 173.449219 L 102.703125 48.53125 L 100.039062 45.867188 L -23.773438 169.679688 L -89.421875 169.679688 " fill-opacity="1" fill-rule="nonzero"/></g><g clip-path="url(#id18)"><path fill="#9d1c19" d="M 108.128906 60.386719 L -16.234375 184.753906 L -89.421875 184.753906 L -89.421875 188.519531 L -14.675781 188.519531 L 109.6875 64.160156 L 273.621094 64.160156 L 331.761719 6.019531 L 326.429688 6.019531 L 272.058594 60.386719 L 108.128906 60.386719 " fill-opacity="1" fill-rule="nonzero"/></g><g clip-path="url(#id19)"><path fill="#9d1c19" d="M 332.359375 18.9375 L 273.945312 77.347656 L 110.011719 77.347656 L -14.351562 201.710938 L -89.421875 201.710938 L -89.421875 205.480469 L -12.792969 205.480469 L 111.574219 81.117188 L 275.503906 81.117188 L 333.921875 22.707031 L 469.585938 22.707031 L 486.273438 6.019531 L 480.941406 6.019531 L 468.027344 18.9375 L 332.359375 18.9375 " fill-opacity="1" fill-rule="nonzero"/></g><g clip-path="url(#id20)"><path fill="#9d1c19" d="M -89.421875 141.417969 L -89.421875 145.183594 L -74.972656 145.183594 L 64.1875 6.019531 L 58.859375 6.019531 L -76.53125 141.417969 L -89.421875 141.417969 " fill-opacity="1" fill-rule="nonzero"/></g><path fill="#9d1c19" d="M 37.304688 47.199219 C 31.0625 47.199219 26 52.261719 26 58.503906 C 26 64.75 31.0625 69.8125 37.304688 69.8125 C 43.546875 69.8125 48.613281 64.75 48.613281 58.503906 C 48.613281 52.261719 43.546875 47.199219 37.304688 47.199219 " fill-opacity="1" fill-rule="nonzero"/><g clip-path="url(#id21)"><path fill="#9d1c19" d="M -89.421875 156.488281 L -89.421875 160.257812 L -58.015625 160.257812 L 40.519531 61.726562 L 37.855469 59.0625 L -59.574219 156.488281 L -89.421875 156.488281 " fill-opacity="1" fill-rule="nonzero"/></g><g clip-path="url(#id22)"><path fill="#9d1c19" d="M 153.351562 194.175781 L 28.988281 318.539062 L -89.421875 318.539062 L -89.421875 322.308594 L 30.546875 322.308594 L 154.910156 197.945312 L 318.84375 197.945312 L 381.023438 135.761719 L 566.421875 135.761719 L 566.421875 131.992188 L 379.46875 131.992188 L 317.285156 194.175781 L 153.351562 194.175781 " fill-opacity="1" fill-rule="nonzero"/></g><path fill="#9d1c19" d="M 312.410156 203.597656 C 306.167969 203.597656 301.105469 208.65625 301.105469 214.90625 C 301.105469 221.148438 306.167969 226.207031 312.410156 226.207031 C 318.65625 226.207031 323.714844 221.148438 323.714844 214.90625 C 323.714844 208.65625 318.65625 203.597656 312.410156 203.597656 " fill-opacity="1" fill-rule="nonzero"/><g clip-path="url(#id23)"><path fill="#9d1c19" d="M -89.421875 337.378906 L -89.421875 341.148438 L 34.316406 341.148438 L 158.679688 216.789062 L 321.832031 216.789062 L 321.832031 213.015625 L 157.121094 213.015625 L 32.753906 337.378906 L -89.421875 337.378906 " fill-opacity="1" fill-rule="nonzero"/></g><path fill="#9d1c19" d="M 401.445312 151.304688 C 395.199219 151.304688 390.136719 156.371094 390.136719 162.613281 C 390.136719 168.859375 395.199219 173.917969 401.445312 173.917969 C 407.6875 173.917969 412.75 168.859375 412.75 162.613281 C 412.75 156.371094 407.6875 151.304688 401.445312 151.304688 " fill-opacity="1" fill-rule="nonzero"/><g clip-path="url(#id24)"><path fill="#9d1c19" d="M 166.539062 231.859375 L 42.175781 356.226562 L -89.421875 356.226562 L -89.421875 359.992188 L 43.734375 359.992188 L 168.101562 235.628906 L 332.035156 235.628906 L 400.8125 166.851562 L 395.484375 166.851562 L 330.476562 231.859375 L 166.539062 231.859375 " fill-opacity="1" fill-rule="nonzero"/></g><path fill="#9d1c19" d="M 517.800781 179.570312 C 511.558594 179.570312 506.492188 184.636719 506.492188 190.878906 C 506.492188 197.121094 511.558594 202.183594 517.800781 202.183594 C 524.042969 202.183594 529.101562 197.121094 529.101562 190.878906 C 529.101562 184.636719 524.042969 179.570312 517.800781 179.570312 " fill-opacity="1" fill-rule="nonzero"/><g clip-path="url(#id25)"><path fill="#9d1c19" d="M 168.425781 246.9375 L 44.058594 371.300781 L -89.421875 371.300781 L -89.421875 375.066406 L 45.621094 375.066406 L 169.984375 250.707031 L 333.921875 250.707031 L 392.332031 192.292969 L 518.269531 192.292969 L 518.269531 188.519531 L 390.773438 188.519531 L 332.359375 246.9375 L 168.425781 246.9375 " fill-opacity="1" fill-rule="nonzero"/></g><path fill="#9d1c19" d="M 438.660156 92.425781 C 432.417969 92.425781 427.351562 97.484375 427.351562 103.730469 C 427.351562 109.972656 432.417969 115.035156 438.660156 115.035156 C 444.902344 115.035156 449.964844 109.972656 449.964844 103.730469 C 449.964844 97.484375 444.902344 92.425781 438.660156 92.425781 " fill-opacity="1" fill-rule="nonzero"/><g clip-path="url(#id26)"><path fill="#9d1c19" d="M 143.925781 162.140625 L 19.5625 286.503906 L -89.421875 286.503906 L -89.421875 290.273438 L 21.128906 290.273438 L 145.488281 165.914062 L 309.425781 165.914062 L 367.835938 107.496094 L 440.542969 107.496094 L 440.542969 103.730469 L 366.273438 103.730469 L 307.863281 162.140625 L 143.925781 162.140625 " fill-opacity="1" fill-rule="nonzero"/></g><path fill="#9d1c19" d="M 529.101562 84.890625 C 522.859375 84.890625 517.800781 89.949219 517.800781 96.191406 C 517.800781 102.4375 522.859375 107.496094 529.101562 107.496094 C 535.347656 107.496094 540.410156 102.4375 540.410156 96.191406 C 540.410156 89.949219 535.347656 84.890625 529.101562 84.890625 " fill-opacity="1" fill-rule="nonzero"/><g clip-path="url(#id27)"><path fill="#9d1c19" d="M 368.160156 120.6875 L 309.746094 179.101562 L 145.8125 179.101562 L 21.453125 303.464844 L -89.421875 303.464844 L -89.421875 307.230469 L 23.011719 307.230469 L 147.371094 182.867188 L 311.308594 182.867188 L 369.71875 124.457031 L 505.386719 124.457031 L 528.550781 101.292969 L 525.886719 98.628906 L 503.828125 120.6875 L 368.160156 120.6875 " fill-opacity="1" fill-rule="nonzero"/></g><path fill="#9d1c19" d="M 448.078125 363.761719 C 441.835938 363.761719 436.777344 368.824219 436.777344 375.066406 C 436.777344 381.3125 441.835938 386.375 448.078125 386.375 C 454.324219 386.375 459.386719 381.3125 459.386719 375.066406 C 459.386719 368.824219 454.324219 363.761719 448.078125 363.761719 " fill-opacity="1" fill-rule="nonzero"/><g clip-path="url(#id28)"><path fill="#9d1c19" d="M -89.421875 384.488281 L -89.421875 388.257812 L 87.078125 388.257812 L 143.605469 367.800781 L 390.871094 367.800781 L 446.875 378.398438 L 449.285156 375.503906 L 392.234375 364.03125 L 142.042969 364.03125 L 85.515625 384.488281 L -89.421875 384.488281 " fill-opacity="1" fill-rule="nonzero"/></g><g clip-path="url(#id29)"><path fill="#9d1c19" d="M 566.421875 350.574219 L 509.15625 350.574219 L 446.976562 288.386719 L 252.117188 288.386719 L 252.117188 292.160156 L 445.414062 292.160156 L 507.601562 354.339844 L 566.421875 354.339844 L 566.421875 350.574219 " fill-opacity="1" fill-rule="nonzero"/></g><path fill="#9d1c19" d="M 252.117188 278.96875 C 245.867188 278.96875 240.808594 284.03125 240.808594 290.273438 C 240.808594 296.519531 245.867188 301.582031 252.117188 301.582031 C 258.359375 301.582031 263.421875 296.519531 263.421875 290.273438 C 263.421875 284.03125 258.359375 278.96875 252.117188 278.96875 " fill-opacity="1" fill-rule="nonzero"/><path fill="#9d1c19" d="M 351.039062 324.90625 C 344.796875 324.90625 339.730469 329.972656 339.730469 336.214844 C 339.730469 342.457031 344.796875 347.519531 351.039062 347.519531 C 357.28125 347.519531 362.34375 342.457031 362.34375 336.214844 C 362.34375 329.972656 357.28125 324.90625 351.039062 324.90625 " fill-opacity="1" fill-rule="nonzero"/><path fill="#9d1c19" d="M 119.273438 334.332031 L 119.273438 338.101562 L 351.039062 338.101562 L 351.039062 334.332031 L 119.273438 334.332031 " fill-opacity="1" fill-rule="nonzero"/><g clip-path="url(#id30)"><path fill="#9d1c19" d="M -89.421875 235.628906 L -89.421875 239.402344 L -1.484375 239.402344 L 122.875 115.035156 L 273.273438 115.035156 C 273.378906 113.78125 273.484375 112.523438 273.574219 111.269531 L 121.316406 111.269531 L -3.042969 235.628906 L -89.421875 235.628906 " fill-opacity="1" fill-rule="nonzero"/></g><path fill="#9d1c19" d="M 283.203125 119.863281 C 287.132812 119.863281 290.332031 116.667969 290.332031 112.742188 C 290.332031 108.808594 287.132812 105.613281 283.203125 105.613281 C 279.277344 105.613281 276.082031 108.808594 276.082031 112.742188 C 276.082031 116.667969 279.277344 119.863281 283.203125 119.863281 Z M 283.203125 99.960938 C 290.25 99.960938 295.984375 105.691406 295.984375 112.742188 C 295.984375 119.785156 290.25 125.515625 283.203125 125.515625 C 276.160156 125.515625 270.429688 119.785156 270.429688 112.742188 C 270.429688 105.691406 276.160156 99.960938 283.203125 99.960938 " fill-opacity="1" fill-rule="nonzero"/><g clip-path="url(#id31)"><path fill="#9d1c19" d="M 117.546875 92.425781 L -6.816406 216.789062 L -89.421875 216.789062 L -89.421875 220.558594 L -5.25 220.558594 L 119.109375 96.191406 L 283.042969 96.191406 L 345.222656 34.007812 L 563.023438 34.007812 L 563.023438 30.242188 L 343.664062 30.242188 L 281.484375 92.425781 L 117.546875 92.425781 " fill-opacity="1" fill-rule="nonzero"/></g><g clip-path="url(#id32)"><path fill="#9d1c19" d="M 566.421875 35.914062 C 565.726562 34.816406 565.320312 33.519531 565.320312 32.125 C 565.320312 30.734375 565.726562 29.4375 566.421875 28.335938 L 566.421875 20.863281 C 562.402344 23.019531 559.664062 27.257812 559.664062 32.125 C 559.664062 36.996094 562.402344 41.234375 566.421875 43.390625 L 566.421875 35.914062 " fill-opacity="1" fill-rule="nonzero"/></g><path fill="#9d1c19" d="M 112.675781 329.84375 L 115.339844 332.507812 L 173.199219 274.648438 L 386.128906 274.648438 L 431.898438 228.875 L 429.234375 226.207031 L 384.566406 270.882812 L 171.640625 270.882812 L 112.675781 329.84375 " fill-opacity="1" fill-rule="nonzero"/><path fill="#9d1c19" d="M 435.832031 228.625 C 439.761719 228.625 442.957031 225.425781 442.957031 221.496094 C 442.957031 217.570312 439.761719 214.371094 435.832031 214.371094 C 431.90625 214.371094 428.707031 217.570312 428.707031 221.496094 C 428.707031 225.425781 431.90625 228.625 435.832031 228.625 Z M 435.832031 208.71875 C 442.878906 208.71875 448.613281 214.453125 448.613281 221.496094 C 448.613281 228.542969 442.878906 234.277344 435.832031 234.277344 C 428.789062 234.277344 423.054688 228.542969 423.054688 221.496094 C 423.054688 214.453125 428.789062 208.71875 435.832031 208.71875 " fill-opacity="1" fill-rule="nonzero"/><path fill="#9d1c19" d="M 108.90625 343.152344 C 112.835938 343.152344 116.03125 339.957031 116.03125 336.027344 C 116.03125 332.097656 112.835938 328.90625 108.90625 328.90625 C 104.976562 328.90625 101.785156 332.097656 101.785156 336.027344 C 101.785156 339.957031 104.976562 343.152344 108.90625 343.152344 Z M 108.90625 323.25 C 115.957031 323.25 121.683594 328.980469 121.683594 336.027344 C 121.683594 343.074219 115.957031 348.804688 108.90625 348.804688 C 101.859375 348.804688 96.128906 343.074219 96.128906 336.027344 C 96.128906 328.980469 101.859375 323.25 108.90625 323.25 " fill-opacity="1" fill-rule="nonzero"/></svg>